<?xml version="1.0" standalone="yes"?>
<svg xmlns="http://www.w3.org/2000/svg" width="64" height="72">
<path style="fill:#af5924; stroke:none;" d="M0 0L0 12L8 10C7.198 6.63213 7.00954 3.45524 7 0L0 0z"/>
<path style="fill:#a7421e; stroke:none;" d="M7 0L7 9C11.4104 8.86954 14.8545 7.27476 19 6L18 0L7 0z"/>
<path style="fill:#b0311a; stroke:none;" d="M18 0L18 5C20.4691 4.57361 22.6454 3.86762 25 3C23.0394 0.276787 21.3007 0.106766 18 0z"/>
<path style="fill:#9c2616; stroke:none;" d="M24 2L30 1C27.4708 -0.0394821 25.8244 -0.0931778 24 2z"/>
<path style="fill:#e31718; stroke:none;" d="M27 1C29.7802 2.90238 32.9155 2.91547 36 4.21219C44.4638 7.77031 51.7199 11.8016 61 13C61 18.9926 60.0245 25.088 61 31C63.733 24.912 63 17.5433 63 11C50.0409 10.4078 40.0249 -1.30882 27 1z"/>
<path style="fill:#a91212; stroke:none;" d="M34 0C42.1834 5.50477 53.0279 10.7876 63 11L63 23C65.7044 16.5552 64 6.96776 64 0L34 0z"/>
<path style="fill:#e65327; stroke:none;" d="M13 10C18.8009 8.96916 23.9991 6.03035 29 3C23.9871 1.26567 15.5471 5.59133 13 10z"/>
<path style="fill:#972515; stroke:none;" d="M27 12L33 11L33 3C27.0931 3.46024 27.0186 6.73801 27 12z"/>
<path style="fill:#b32116; stroke:none;" d="M33 3L33 11L35 11C35.0583 8.21554 35.3521 5.70919 36 3L33 3z"/>
<path style="fill:#ab2e18; stroke:none;" d="M26 4C23.6192 7.39917 24.0004 10.9515 24 15C28.0579 12.6427 27.7097 8.03817 26 4z"/>
<path style="fill:#a71a14; stroke:none;" d="M35 4C35.061 9.12233 35.9027 11.4352 41 13C39.8967 8.59748 39.5529 5.67377 35 4z"/>
<path style="fill:#972c18; stroke:none;" d="M23 6C21.5215 6.98568 21.7968 7 20 7L20 17C24.7649 15.4186 24.7537 10.1792 23 6z"/>
<path style="fill:#951711; stroke:none;" d="M40 6C40.0994 10.0997 40.442 12.6877 44 15C43.9502 10.7923 43.734 8.2905 40 6z"/>
<path style="fill:#ae4b21; stroke:none;" d="M3 18C5.44203 18.1095 7.62284 18.428 10 19C7.89411 19.6438 6.20488 19.9059 4 20L12 23C13.9555 20.4206 17.2061 18.9992 18.9722 16.4552C20.5455 14.1891 19.998 10.6083 20 8C13.9644 9.64747 4.14552 10.9818 3 18z"/>
<path style="fill:#b91915; stroke:none;" d="M44 8C44.0411 11.5355 43.9106 13.9981 47 16C47.1095 13.558 47.428 11.3772 48 9L44 8z"/>
<path style="fill:#ed7430; stroke:none;" d="M1 11C2.5694 13.511 2 15.9628 2 19C2.97085 17.1802 3.67259 15.0787 5.31482 13.723C7.85567 11.6254 10.9571 11.6961 13 9C8.87665 9.18842 5.05817 10.4034 1 11z"/>
<path style="fill:#a81211; stroke:none;" d="M47 10C47.062 15.2495 48.4182 17.3328 52 21C55.0111 19.3249 57.5801 19.0379 61 19L61 13L47 10z"/>
<path style="fill:#d26f57; stroke:none;" d="M27 22C32.1632 19.1445 32.9796 16.7457 33 11C26.784 12.2962 27.0043 16.446 27 22z"/>
<path style="fill:#ca503d; stroke:none;" d="M33 11L33 19L38 19C37.9474 14.5658 37.8055 11.802 33 11z"/>
<path style="fill:#d1712e; stroke:none;" d="M0 12L0 18C0.951105 15.7147 0.951105 14.2853 0 12z"/>
<path style="fill:#f19639; stroke:none;" d="M1 12C1 29.8659 4.87479 46.0238 16.6157 59.9853C20.8586 65.0307 31.7323 76.0156 37 67C28.7806 68.1358 23.47 63.0326 18.3009 56.9992C8.9608 46.0975 -0.198871 26.7116 3 12L1 12z"/>
<path style="fill:#bd6f67; stroke:none;" d="M38 12L38 19C39.0595 16.4657 39.0595 14.5343 38 12z"/>
<path style="fill:#d75346; stroke:none;" d="M39 13C39.0418 16.5735 39.0037 18.84 42 21C42.1095 18.558 42.428 16.3772 43 14L39 13z"/>
<path style="fill:#e49379; stroke:none;" d="M26 14L26 23C27.2561 20.0059 27.2561 16.9941 26 14z"/>
<path style="fill:#e7a792; stroke:none;" d="M24 15C23.0096 18.35 23.0019 21.514 23 25L26 25L26 15L24 15z"/>
<path style="fill:#db786f; stroke:none;" d="M42 15C42.0583 17.7845 42.3521 20.2908 43 23C44.0921 20.4725 44.3485 17.6983 45 15L42 15z"/>
<path style="fill:#e58980; stroke:none;" d="M44 16L44 24L47 24C46.9582 20.4265 46.9963 18.16 44 16z"/>
<path style="fill:#c84a44; stroke:none;" d="M45.6667 16.3333C45.2222 16.7778 46.2778 16.7222 46.3333 16.6667C46.7778 16.2222 45.7222 16.2778 45.6667 16.3333z"/>
<path style="fill:#da8560; stroke:none;" d="M19 17L19 28C20.4309 24.59 20.4309 20.41 19 17z"/>
<path style="fill:#da6937; stroke:none;" d="M20 17L20 27L25 27C23.1207 23.5845 22.1239 20.9104 22 17L20 17z"/>
<path style="fill:#e07f59; stroke:none;" d="M22 17L22 24C23.0595 21.4657 23.0595 19.5343 22 17z"/>
<path style="fill:#dd7268; stroke:none;" d="M47 17L47 23C47.9511 20.7147 47.9511 19.2853 47 17z"/>
<path style="fill:#945c23; stroke:none;" d="M0 18L0 40L5 40C3.41321 33.0783 2.76784 24.4164 0 18z"/>
<path style="fill:#bc6629; stroke:none;" d="M3 18L3 25C3.77894 23.231 3.91241 21.9641 4 20L10 20C7.69215 18.2405 5.90765 18.0828 3 18z"/>
<path style="fill:#b6704b; stroke:none;" d="M15 18C15.802 21.3679 15.9905 24.5448 16 28C17.3613 24.7557 17.789 20.4371 15 18z"/>
<path style="fill:#d28d6a; stroke:none;" d="M17 18L17 28C18.3457 24.793 18.3457 21.207 17 18z"/>
<path style="fill:#db9a75; stroke:none;" d="M18 18C18 24.6593 18.5507 31.4868 17 38C21.1053 34.832 19.8957 22.5177 18 18z"/>
<path style="fill:#c96159; stroke:none;" d="M48 18L48 27L50 27C49.9885 23.5335 50.1247 20.8037 48 18z"/>
<path style="fill:#d39674; stroke:none;" d="M10 28L16 28L16 19C12.1262 21.0141 10.7674 23.7665 10 28z"/>
<path style="fill:#df341f; stroke:none;" d="M31 19L31 21L35 21C36.714 26.835 41.6487 34.1743 45.9506 38.4815C48.5551 41.0892 51.9811 40.1651 53.6281 36.9769C55.9601 32.4626 51.2235 29.0974 48.0748 26.831C41.6074 22.1758 39.503 19.0244 31 19z"/>
<path style="fill:#cf5146; stroke:none;" d="M50 19C49.9738 22.1217 49.7243 24.9605 49 28C51.4878 25.8287 51.2434 22.165 52 19L50 19z"/>
<path style="fill:#95110f; stroke:none;" d="M53 19C53.4883 23.7725 54.9558 29.1757 59 32L61 19L53 19z"/>
<path style="fill:#e14b25; stroke:none;" d="M28 34C37.447 35.2629 40.9933 42.3405 41 51C45.7819 49.242 46.5414 44.4938 50 41C43.5756 36.8758 38.234 27.8515 35 21C24.6262 20.0248 27.7863 26.6096 28 34z"/>
<path style="fill:#ce6d67; stroke:none;" d="M51 20L51 29C52.2561 26.0059 52.2561 22.9941 51 20z"/>
<path style="fill:#904f1e; stroke:none;" d="M4 21L4 23L11 23L11 21L4 21z"/>
<path style="fill:#e58a83; stroke:none;" d="M52 21C52.0031 24.9871 51.4024 28.6677 55 31C54.6813 27.3498 53.9581 24.1164 52 21z"/>
<path style="fill:#c81815; stroke:none;" d="M60 21L60 25C60.7102 23.2405 60.7102 22.7595 60 21z"/>
<path style="fill:#a35b25; stroke:none;" d="M4 23L4 28C7.53189 27.0216 9.59141 26.5178 11 23L4 23z"/>
<path style="fill:#d04b3e; stroke:none;" d="M47 23C45.9644 24.1863 45.6614 24.6036 45 26L46 27L48 27C47.8259 25.3148 47.683 24.506 47 23z"/>
<path style="fill:#c14d49; stroke:none;" d="M53 23L54 24L53 23z"/>
<path style="fill:#981511; stroke:none;" d="M63 23C62.1064 26.6272 61.4706 30.2953 61 34C65.3075 33.077 64.8399 26.1934 63 23z"/>
<path style="fill:#d87d60; stroke:none;" d="M24 25C25.2228 26.1952 25.42 26.3164 27 27C25.7772 25.8048 25.58 25.6836 24 25z"/>
<path style="fill:#bb5a56; stroke:none;" d="M54.3333 25.6667C54.2778 25.7222 54.2222 26.7778 54.6667 26.3333C54.7222 26.2778 54.7778 25.2222 54.3333 25.6667z"/>
<path style="fill:#894f1f; stroke:none;" d="M5 27C6.50605 27.683 7.31478 27.8259 9 28C7.49395 27.317 6.68521 27.1741 5 27z"/>
<path style="fill:#be8667; stroke:none;" d="M9 27L9 31C11.1983 29.9911 12.5795 29.8403 15 30C13.3519 28.0215 11.5002 27.688 9 27z"/>
<path style="fill:#e4682c; stroke:none;" d="M25 34C23.0468 40.6227 22.9837 53.3283 31 55L32 35C27.077 34.2149 26.1539 31.7253 26 27C18.9662 27.231 17.1616 33.3893 25 34z"/>
<path style="fill:#e39a7f; stroke:none;" d="M26 27L26 34C27.0595 31.4657 27.0595 29.5343 26 27z"/>
<path style="fill:#cb7352; stroke:none;" d="M27 27L27 35L32 35L32 43L34 43C33.9814 37.738 33.9069 34.4602 28 34C27.9813 31.4567 27.9845 29.3316 27 27z"/>
<path style="fill:#b64843; stroke:none;" d="M55 27L55 31C55.7102 29.2405 55.7102 28.7595 55 27z"/>
<path style="fill:#ca762e; stroke:none;" d="M4 28L4 31C4.6961 29.4463 4.6961 29.5537 4 28z"/>
<path style="fill:#9b5a23; stroke:none;" d="M5 28L5 32C6.78114 30.7677 7.9404 29.8585 9 28L5 28z"/>
<path style="fill:#e76a22; stroke:none;" d="M15 28L15 30L18 30L18 28L15 28z"/>
<path style="fill:#e6281b; stroke:none;" d="M59 28C58.2276 33.2301 55.9723 37.6583 57 43C60.0419 38.7362 60.8899 33.1665 61 28L59 28z"/>
<path style="fill:#dfaa85; stroke:none;" d="M9 32C11.7386 31.7893 12.422 31.6975 13 29C10.791 29.6839 10.2966 30.0799 9 32z"/>
<path style="fill:#86501f; stroke:none;" d="M6 30C6.07081 33.3387 6.26908 36.1114 8 39C8.89962 35.9592 8.99195 33.1691 9 30L6 30z"/>
<path style="fill:#d68759; stroke:none;" d="M13 30L13 32L18 32L18 30L13 30z"/>
<path style="fill:#d2544b; stroke:none;" d="M53.3333 31.6667C53.2778 31.7222 53.2222 32.7778 53.6667 32.3333C53.7222 32.2778 53.7778 31.2222 53.3333 31.6667z"/>
<path style="fill:#c47b7b; stroke:none;" d="M54 31L54 33L56 33L56 31L54 31z"/>
<path style="fill:#76110a; stroke:none;" d="M56 31L56 37C57.416 34.9584 57.7451 33.489 58 31L56 31z"/>
<path style="fill:#c4752e; stroke:none;" d="M5.33333 32.6667C5.27778 32.7222 5.22223 33.7778 5.66667 33.3333C5.72222 33.2778 5.77779 32.2222 5.33333 32.6667z"/>
<path style="fill:#d3854d; stroke:none;" d="M9 32C9.84863 33.9912 10.267 34.7776 12 36L12 32L9 32z"/>
<path style="fill:#e77d31; stroke:none;" d="M12 32L12 37L18 37L18 32L12 32z"/>
<path style="fill:#b4703b; stroke:none;" d="M9 33L9 37C9.71021 35.2405 9.71021 34.7595 9 33z"/>
<path style="fill:#84251c; stroke:none;" d="M55 33L55 40C56.4662 37.4291 56.3249 35.6435 55 33z"/>
<path style="fill:#ca8661; stroke:none;" d="M20 34C21.1394 35.0154 21.6116 35.3087 23 36L22 42C24.3086 39.994 24.287 36.9432 25 34L20 34z"/>
<path style="fill:#b01c14; stroke:none;" d="M60 34L60 37C60.6961 35.4463 60.6961 35.5537 60 34z"/>
<path style="fill:#841910; stroke:none;" d="M61 34C59.8924 37.02 58.6925 39.84 58 43L64 42L64 34L61 34z"/>
<path style="fill:#ea6f28; stroke:none;" d="M19 35C19.578 37.6975 20.2614 37.7893 23 38C21.7741 35.9653 21.2974 35.6735 19 35z"/>
<path style="fill:#d29d6d; stroke:none;" d="M9 39C10.752 38.4361 11.542 38.0811 13 37C10.5471 36.8609 10.3236 36.9293 9 39z"/>
<path style="fill:#e35c29; stroke:none;" d="M34 36L34 55C43.9853 51.7734 42.5797 40.2831 34 36z"/>
<path style="fill:#b7655a; stroke:none;" d="M54 36C53.7761 37.6839 53.7817 38.3135 54 40C54.7102 38.2405 54.7102 37.7595 54 36z"/>
<path style="fill:#bb865e; stroke:none;" d="M13 37C15.0416 38.416 16.511 38.7451 19 39C16.9584 37.584 15.489 37.2549 13 37z"/>
<path style="fill:#a6601d; stroke:none;" d="M8 38C7.93023 40.315 8.2598 41.7794 9 44C9.73551 41.5667 9.30544 40.1807 8 38z"/>
<path style="fill:#eb8731; stroke:none;" d="M9 39L9 41L13 42L13 38L9 39z"/>
<path style="fill:#d1a887; stroke:none;" d="M13 38C13.5451 39.6352 13.3648 39.4549 15 40L15 38L13 38z"/>
<path style="fill:#d9854b; stroke:none;" d="M19 38L19 43L23 41L22 38L19 38z"/>
<path style="fill:#e4a49b; stroke:none;" d="M53.3333 38.6667C53.2778 38.7222 53.2222 39.7778 53.6667 39.3333C53.7222 39.2778 53.7778 38.2222 53.3333 38.6667z"/>
<path style="fill:#ad8665; stroke:none;" d="M13 39C13.6836 40.58 13.8048 40.7772 15 42C14.3164 40.42 14.1952 40.2228 13 39z"/>
<path style="fill:#e78232; stroke:none;" d="M15 39C15.276 42.4723 15.8834 45.7024 17 49C18.4009 45.8793 18.7304 42.4107 19 39L15 39z"/>
<path style="fill:#e3867a; stroke:none;" d="M52 39L51 43C52.4566 41.8966 52.8966 41.4566 54 40L52 39z"/>
<path style="fill:#825420; stroke:none;" d="M0 40L0 58L13 58C12.1167 51.3586 7.27451 40.5651 0 40z"/>
<path style="fill:#782411; stroke:none;" d="M54 40C51.4827 43.7882 48.6707 46.337 45 49C50.6986 51.7785 55.5069 45.4953 54 40z"/>
<path style="fill:#bd2a1a; stroke:none;" d="M55.3333 40.6667C55.2778 40.7222 55.2222 41.7778 55.6667 41.3333C55.7222 41.2778 55.7778 40.2222 55.3333 40.6667z"/>
<path style="fill:#d59c6a; stroke:none;" d="M10 41C10.6128 42.6615 11.0427 43.4833 12 45C13.2699 44.0275 14.0275 43.2699 15 42L10 41z"/>
<path style="fill:#d67160; stroke:none;" d="M50 41C50.4057 43.0924 50.2167 43.0198 52 44C51.3087 42.6116 51.0154 42.1394 50 41z"/>
<path style="fill:#eb4324; stroke:none;" d="M56 41C53.124 45.0273 50.497 49.2694 49 54C53.8638 52.3941 57.7382 46.024 56 41z"/>
<path style="fill:#d99e72; stroke:none;" d="M20 42C19.2776 44.4181 19.0519 46.4717 19 49L21 49C20.9813 46.4567 20.9845 44.3316 20 42z"/>
<path style="fill:#c0855f; stroke:none;" d="M21 42L21 50C22.1614 47.2302 22.1614 44.7698 21 42z"/>
<path style="fill:#d29874; stroke:none;" d="M22 42L22 51C23.1946 48.1805 23.2818 45.0074 24 42L22 42z"/>
<path style="fill:#d05945; stroke:none;" d="M48 42L49 46L52 45C50.6879 43.5409 49.7691 42.8428 48 42z"/>
<path style="fill:#ae4e40; stroke:none;" d="M52 42L53 43L52 42z"/>
<path style="fill:#7b2112; stroke:none;" d="M51 56L64 56L64 42C56.2864 42.4261 53.1527 49.1973 51 56z"/>
<path style="fill:#80501f; stroke:none;" d="M10 43C10.7057 46.6613 12.44 49.6389 14 53C17.2319 52.4266 19.7839 52.3001 23 53C20.3861 48.7862 14.3085 45.4871 10 43z"/>
<path style="fill:#deae87; stroke:none;" d="M13 43C13.6836 44.58 13.8048 44.7772 15 46L15 43L13 43z"/>
<path style="fill:#df9354; stroke:none;" d="M15 43L15 47C15.7102 45.2405 15.7102 44.7595 15 43z"/>
<path style="fill:#d88b51; stroke:none;" d="M18 43L18 49C18.9511 46.7147 18.9511 45.2853 18 43z"/>
<path style="fill:#e3b193; stroke:none;" d="M23 43L23 52C24.2561 49.0059 24.2561 45.9941 23 43z"/>
<path style="fill:#d7936b; stroke:none;" d="M24 43L24 52C25.2561 49.0059 25.2561 45.9941 24 43z"/>
<path style="fill:#da825a; stroke:none;" d="M31 43C31 47.1018 29.1472 54.9601 34 56C31.6446 51.7646 32.7903 47.2665 31 43z"/>
<path style="fill:#e1ac94; stroke:none;" d="M32 43L32 55C33.5124 51.3957 33.5124 46.6043 32 43z"/>
<path style="fill:#e39575; stroke:none;" d="M33 43L33 55C34.5124 51.3957 34.5124 46.6043 33 43z"/>
<path style="fill:#d25c42; stroke:none;" d="M46 43C46.168 45.4025 46.1969 46.4602 48 48C47.4494 46.1749 46.9241 44.6481 46 43z"/>
<path style="fill:#c97260; stroke:none;" d="M47 43L47 47L49 47L49 43L47 43z"/>
<path style="fill:#996637; stroke:none;" d="M18 49C19.2484 49.6848 19.5484 49.7488 21 50C19.7516 49.3152 19.4516 49.2512 18 49z"/>
<path style="fill:#873718; stroke:none;" d="M38 56C43.408 55.9958 47.145 56.0885 50 51C44.8268 49.5171 39.743 50.4303 38 56z"/>
<path style="fill:#a36025; stroke:none;" d="M15 53C18.1945 58.5265 23.7472 65.3252 30 67.5633C34.8346 69.2937 38.7649 64.4615 38.8519 60.0039C38.891 57.9978 38.3635 55.9589 38 54C29.8251 55.9887 22.954 50.7148 15 53z"/>
<path style="fill:#b27545; stroke:none;" d="M23.6667 52.3333C23.2222 52.7778 24.2778 52.7222 24.3333 52.6667C24.7778 52.2222 23.7222 52.2778 23.6667 52.3333z"/>
<path style="fill:#eb612c; stroke:none;" d="M44 62C47.0864 59.7231 49.0785 57.3178 51 54C46.6933 55.22 44.2032 57.437 44 62z"/>
<path style="fill:#852f17; stroke:none;" d="M50 55C46.0998 60.681 46 65.2991 46 72L64 72L64 56C59.2389 56 54.6551 56.1083 50 55z"/>
<path style="fill:#915d22; stroke:none;" d="M13 56C9.31161 58.7943 4.48098 58 0 58L0 72L20 72C19.9603 64.966 18.8148 60.4626 13 56z"/>
<path style="fill:#a34e21; stroke:none;" d="M38 56C38.572 58.3772 38.8905 60.558 39 63C42.1537 61.0914 44.0914 59.1537 46 56L38 56z"/>
<path style="fill:#ec7c32; stroke:none;" d="M36 67C40.2365 66.8123 42.2036 64.7587 44 61C40.2363 62.0567 38.2867 63.8551 36 67z"/>
<path style="fill:#a84b20; stroke:none;" d="M45 61C42.6178 64.7199 42.9263 67.6901 43 72L46 72C46 68.2998 46.4403 64.4324 45 61z"/>
<path style="fill:#82511f; stroke:none;" d="M19 64C19.6479 66.7092 19.9417 69.2155 20 72L22 72C21.9589 68.4645 22.0894 66.0019 19 64z"/>
<path style="fill:#b9752d; stroke:none;" d="M22 65L22 72L24 72C24.1767 68.8487 24.1323 67.3307 22 65z"/>
<path style="fill:#8e461d; stroke:none;" d="M41 65L41 72L43 72L43 65L41 65z"/>
<path style="fill:#a45a24; stroke:none;" d="M40 66L33 71C35.6127 72.0977 38.1645 71.9928 41 72C40.9528 69.7472 40.8742 68.0521 40 66z"/>
<path style="fill:#8e5922; stroke:none;" d="M24 68L24 72C24.7102 70.2405 24.7102 69.7595 24 68z"/>
<path style="fill:#a66828; stroke:none;" d="M25 68L25 72L31 72C29.096 70.1157 27.4663 69.0469 25 68z"/>
<path style="fill:#ca762e; stroke:none;" d="M31.6667 71.3333C31.2222 71.7778 32.2778 71.7222 32.3333 71.6667C32.7778 71.2222 31.7222 71.2778 31.6667 71.3333z"/>
</svg>
