<?xml version="1.0" standalone="no"?><!DOCTYPE svg PUBLIC "-//W3C//DTD SVG 1.1//EN" "http://www.w3.org/Graphics/SVG/1.1/DTD/svg11.dtd"><svg t="1578200439120" class="icon" viewBox="0 0 1024 1024" version="1.1" xmlns="http://www.w3.org/2000/svg" p-id="1783" xmlns:xlink="http://www.w3.org/1999/xlink" width="335" height="335"><defs><style type="text/css"></style></defs><path d="M475.562667 0h167.424v775.04c-85.888 16.298667-148.949333 22.826667-217.429334 22.826667-204.416 0-310.954667-92.416-310.954666-269.653334 0-170.709333 113.066667-281.6 288.128-281.6 27.178667 0 47.829333 2.176 72.832 8.704V0z m0 390.101333a166.144 166.144 0 0 0-56.533334-8.704c-84.821333 0-133.717333 52.181333-133.717333 143.530667 0 89.173333 46.762667 138.069333 132.650667 138.069333 18.474667 0 33.706667-1.066667 57.6-4.352V390.058667z" fill="#0e932e" p-id="1784"></path><path d="M909.397333 258.56v388.138667c0 133.717333-9.770667 197.888-39.125333 253.312-27.178667 53.290667-63.061333 86.997333-137.002667 123.946666l-155.477333-73.941333c73.941333-34.773333 109.824-65.237333 132.650667-112 23.936-47.829333 31.530667-103.296 31.530666-248.96V258.517333h167.424zM741.973333 0.896h167.424v171.776H741.973333V0.896z" fill="#0e932e" p-id="1785"></path></svg>